# xmcd
#
# Track frame offsets: 
#        182
#        27047
#        45115
#
# Disc length: 863 seconds
#
# Revision: 1
# Processed by: cddbd v1.5.1PL0 Copyright (c) Steve Scherf et al.
# Submitted via: ExactAudioCopy v0.90b4
#
DISCID=12035d03
DTITLE=Marla Glen - Ain't That A Shame (Single)
DYEAR=1995
DGENRE=Blues
TTITLE0=Ain't That A Shame
TTITLE1=Not Really Easy
TTITLE2=Center Of A Star
EXTD=YEAR: 2005
EXTT0=
EXTT1=
EXTT2=
PLAYORDER=
